<?xml version="1.0" encoding="utf-8"?>
<!-- Generator: Adobe Illustrator 24.2.3, SVG Export Plug-In . SVG Version: 6.00 Build 0)  -->
<svg version="1.1" id="Capa_1" xmlns="http://www.w3.org/2000/svg" xmlns:xlink="http://www.w3.org/1999/xlink" x="0px" y="0px"
	 viewBox="0 0 139.2 38.87" style="enable-background:new 0 0 139.2 38.87;" xml:space="preserve">
<style type="text/css">
	.st0{fill:#004772;}
	.st1{fill:#727272;}
	.st2{fill:#F2F2F2;}
	.st3{fill:#FF5454;}
	.st4{fill:url(#SVGID_1_);}
	.st5{fill:#011423;}
	.st6{fill:#FFFFFF;}
	.st7{fill:#F7F7F7;}
	.st8{fill:#00ACF5;}
	.st9{fill:#00ADF6;}
	.st10{fill:#FFFFFF;stroke:#00ADF6;stroke-miterlimit:10;}
	.st11{fill:none;stroke:#004772;stroke-width:1.5;stroke-linecap:round;stroke-linejoin:round;stroke-miterlimit:10;}
	.st12{fill:url(#SVGID_2_);}
	.st13{fill:#17BF93;}
	.st14{fill:#FFB93E;}
	.st15{fill:none;stroke:#FFFFFF;stroke-width:2;stroke-miterlimit:10;}
	.st16{fill:none;stroke:#FF5454;stroke-width:8;stroke-miterlimit:10;}
	.st17{fill:none;stroke:#FFFFFF;stroke-miterlimit:10;}
	.st18{clip-path:url(#SVGID_4_);}
	.st19{opacity:0.7;fill:url(#SVGID_7_);}
	.st20{opacity:0.02;}
	
		.st21{fill:none;stroke:url(#SVGID_8_);stroke-width:676.0851;stroke-miterlimit:10;stroke-dasharray:3.7734,15.0934,3.7734,15.0934,3.7734,15.0934;}
	.st22{opacity:0.3;}
	.st23{opacity:0.1;}
	.st24{opacity:0.19;}
	.st25{opacity:0.5;}
	.st26{opacity:0.4;}
	.st27{clip-path:url(#SVGID_10_);}
	.st28{opacity:0.19;fill:url(#SVGID_11_);}
	.st29{clip-path:url(#SVGID_13_);}
	.st30{clip-path:url(#SVGID_19_);}
	.st31{clip-path:url(#SVGID_21_);}
	.st32{fill:url(#SVGID_22_);}
	.st33{fill:url(#SVGID_23_);}
	.st34{fill:url(#SVGID_24_);}
	.st35{fill:url(#SVGID_25_);}
	.st36{fill:url(#SVGID_26_);}
	.st37{fill:url(#SVGID_27_);}
	.st38{fill:url(#SVGID_28_);}
	.st39{fill:url(#SVGID_29_);}
	.st40{fill:url(#SVGID_30_);}
	.st41{fill:url(#SVGID_31_);}
	.st42{fill:url(#SVGID_32_);}
	.st43{fill:url(#SVGID_33_);}
	.st44{fill:url(#SVGID_34_);}
	.st45{fill:url(#SVGID_35_);}
	.st46{fill:url(#SVGID_36_);}
	.st47{fill:url(#SVGID_37_);}
	.st48{fill:url(#SVGID_38_);}
	.st49{fill:url(#SVGID_39_);}
	.st50{fill:url(#SVGID_40_);}
	.st51{fill:url(#SVGID_41_);}
	.st52{fill:url(#SVGID_42_);}
	.st53{fill:url(#SVGID_43_);}
	.st54{fill:url(#SVGID_44_);}
	.st55{fill:url(#SVGID_45_);}
	.st56{fill:url(#SVGID_46_);}
	.st57{fill:url(#SVGID_47_);}
	.st58{opacity:0.15;fill:#FFFFFF;}
	.st59{fill:#FF4F5B;}
	.st60{fill:#DB4A4A;}
	.st61{fill:#60609D;}
	.st62{fill:#FE5454;}
	.st63{fill:#8F8FE0;}
	.st64{fill:url(#SVGID_50_);}
	.st65{fill:#D9D3DC;}
	.st66{enable-background:new    ;}
	.st67{clip-path:url(#SVGID_52_);enable-background:new    ;}
	.st68{fill:#A19EA5;}
	.st69{fill:#A09DA3;}
	.st70{fill:#9E9BA2;}
	.st71{fill:#9D9AA0;}
	.st72{fill:#9B989E;}
	.st73{fill:#9A979D;}
	.st74{fill:#98959B;}
	.st75{fill:#97949A;}
	.st76{fill:#959298;}
	.st77{fill:#949197;}
	.st78{fill:#948F95;}
	.st79{fill:#918E93;}
	.st80{fill:#918C92;}
	.st81{fill:#8E8B8F;}
	.st82{fill:#8C898F;}
	.st83{fill:#8B888E;}
	.st84{fill:#89868B;}
	.st85{fill:#88858A;}
	.st86{fill:#868389;}
	.st87{fill:#858287;}
	.st88{fill:#838085;}
	.st89{fill:#828084;}
	.st90{fill:#807E82;}
	.st91{fill:#807D81;}
	.st92{fill:#7E7B80;}
	.st93{fill:#7D7A7F;}
	.st94{clip-path:url(#SVGID_54_);enable-background:new    ;}
	.st95{clip-path:url(#SVGID_56_);enable-background:new    ;}
	.st96{fill:url(#SVGID_57_);}
	.st97{clip-path:url(#SVGID_59_);enable-background:new    ;}
	.st98{fill:url(#SVGID_60_);}
	.st99{fill:url(#SVGID_61_);}
	.st100{fill:url(#SVGID_62_);}
	.st101{clip-path:url(#SVGID_64_);enable-background:new    ;}
	.st102{fill:#A3A0A6;}
	.st103{fill:#A4A1A8;}
	.st104{fill:#A6A4A9;}
	.st105{fill:#A8A4AB;}
	.st106{fill:#AAA6AC;}
	.st107{fill:#ABA7AE;}
	.st108{opacity:0.15;fill:url(#SVGID_65_);}
	.st109{fill:#FF8989;}
	.st110{fill:#BB3E3E;}
	.st111{fill:#525280;}
	.st112{fill:url(#SVGID_66_);}
	.st113{fill:#D9D1E0;}
	.st114{fill:#F8F4FB;}
	.st115{fill:#BDA4D0;}
	.st116{fill:url(#SVGID_67_);}
	.st117{fill:url(#XMLID_9_);}
	.st118{fill:url(#SVGID_68_);}
	.st119{fill:url(#XMLID_10_);}
	.st120{fill:url(#SVGID_69_);}
	.st121{fill:url(#XMLID_11_);}
	.st122{fill:url(#SVGID_70_);}
	.st123{fill:url(#XMLID_12_);}
	.st124{fill:url(#SVGID_71_);}
	.st125{fill:url(#XMLID_13_);}
	.st126{fill:url(#SVGID_72_);}
	.st127{fill:url(#XMLID_14_);}
	.st128{fill:url(#SVGID_73_);}
	.st129{fill:#374B93;}
	.st130{fill:#6DD6F2;}
	.st131{clip-path:url(#SVGID_75_);}
	.st132{fill:#FFFFFF;stroke:#001C26;stroke-width:0.25;stroke-miterlimit:10;}
	.st133{fill:#F9F9F9;stroke:#B3B3B3;stroke-width:0.5;stroke-miterlimit:10;}
	.st134{fill:#B3B3B3;}
	.st135{clip-path:url(#SVGID_77_);}
	.st136{fill:#491010;}
	.st137{clip-path:url(#SVGID_79_);}
	.st138{fill:url(#XMLID_16_);}
	.st139{fill:url(#SVGID_82_);}
	.st140{clip-path:url(#SVGID_84_);}
	.st141{fill:#E4E8E9;}
	.st142{fill:#F4EFEF;}
	.st143{fill:#F5F7F7;}
	.st144{fill:none;stroke:#4D4D4D;stroke-width:0.5;stroke-miterlimit:10;}
	.st145{fill:#005275;}
	.st146{fill:#004772;stroke:#004772;stroke-width:0.75;stroke-miterlimit:10;}
	.st147{fill:none;stroke:#FFFFFF;stroke-width:2;stroke-linecap:round;stroke-miterlimit:10;}
	.st148{fill:none;stroke:#FFFFFF;stroke-width:1.5;stroke-linecap:round;stroke-linejoin:round;stroke-miterlimit:10;}
	.st149{fill:none;stroke:#B3B3B3;stroke-width:0.75;stroke-miterlimit:10;}
	.st150{fill:#FF1C26;}
	.st151{fill:#666666;}
	.st152{fill:#E6E6E6;}
	.st153{fill:none;stroke:#CCCCCC;stroke-miterlimit:10;}
	.st154{clip-path:url(#SVGID_96_);}
	.st155{fill:url(#SVGID_99_);}
	.st156{fill:none;stroke:#CCCCCC;stroke-width:3;stroke-linecap:round;stroke-linejoin:round;stroke-miterlimit:10;}
	.st157{fill:#EAEAEA;}
	.st158{fill:url(#SVGID_100_);}
	.st159{fill:#0BFF22;}
	.st160{fill:url(#SVGID_101_);}
	.st161{fill:url(#SVGID_102_);}
	.st162{fill:#FFB210;}
	.st163{fill:none;stroke:#FFFFFF;stroke-linecap:round;stroke-miterlimit:10;}
	.st164{fill:url(#SVGID_103_);}
	.st165{fill:url(#SVGID_104_);}
	.st166{fill:url(#SVGID_105_);}
	.st167{fill:url(#SVGID_106_);}
	.st168{fill:url(#SVGID_107_);}
	.st169{fill:none;stroke:#E0E0E0;stroke-width:8;stroke-miterlimit:10;}
	.st170{fill:none;stroke:#FFB210;stroke-width:8;stroke-miterlimit:10;}
	.st171{fill:none;stroke:#CCCCCC;stroke-width:2;stroke-linecap:round;stroke-linejoin:round;stroke-miterlimit:10;}
	.st172{fill:none;stroke:#FFFFFF;stroke-width:2;stroke-linecap:round;stroke-linejoin:round;stroke-miterlimit:10;}
	.st173{clip-path:url(#SVGID_109_);}
	.st174{fill:url(#SVGID_110_);}
	.st175{fill:url(#XMLID_17_);}
	.st176{fill:url(#SVGID_111_);}
	.st177{clip-path:url(#SVGID_113_);}
	.st178{clip-path:url(#SVGID_117_);}
	.st179{fill:#F9F9F9;}
	.st180{fill:#CCCCCC;}
	.st181{clip-path:url(#SVGID_119_);}
	.st182{fill:url(#SVGID_122_);}
</style>
<g>
	<g>
		<g>
			<path class="st179" d="M119.83,38.27H19.37c-10.4,0-18.84-8.43-18.84-18.84v0C0.53,9.03,8.97,0.6,19.37,0.6h100.46
				c10.4,0,18.84,8.43,18.84,18.84v0C138.67,29.84,130.23,38.27,119.83,38.27z"/>
			<path class="st134" d="M119.83,38.52H19.37c-10.52,0-19.09-8.56-19.09-19.09S8.85,0.35,19.37,0.35h100.46
				c10.52,0,19.09,8.56,19.09,19.09S130.35,38.52,119.83,38.52z M19.37,0.85C9.12,0.85,0.78,9.19,0.78,19.44
				c0,10.25,8.34,18.59,18.59,18.59h100.46c10.25,0,18.59-8.34,18.59-18.59c0-10.25-8.34-18.59-18.59-18.59H19.37z"/>
		</g>
		<g>
			<path class="st3" d="M24.63,22.06h-7.75l-1.48,4.07h-2.45l6.52-17.3h2.58l6.5,17.3H26.1L24.63,22.06z M23.98,20.29l-3.22-8.9
				l-3.22,8.9H23.98z"/>
			<path class="st3" d="M41.28,13.64c1.15,0.93,1.86,2.18,2.12,3.75H41c-0.17-0.98-0.62-1.75-1.36-2.31
				c-0.74-0.56-1.66-0.84-2.76-0.84c-0.8,0-1.53,0.18-2.19,0.55c-0.66,0.37-1.19,0.93-1.59,1.69c-0.4,0.76-0.6,1.7-0.6,2.81
				s0.2,2.05,0.6,2.81c0.4,0.76,0.93,1.32,1.59,1.69c0.66,0.37,1.39,0.55,2.19,0.55c1.1,0,2.02-0.28,2.76-0.85
				c0.74-0.57,1.2-1.34,1.36-2.32h2.4c-0.27,1.58-0.97,2.84-2.12,3.76c-1.15,0.93-2.6,1.39-4.35,1.39c-1.32,0-2.48-0.28-3.5-0.85
				s-1.81-1.38-2.39-2.44s-0.86-2.3-0.86-3.74s0.29-2.68,0.86-3.75s1.37-1.88,2.39-2.45s2.18-0.85,3.5-0.85
				C38.68,12.24,40.13,12.71,41.28,13.64z"/>
			<path class="st3" d="M52.93,24.14v2h-1.7c-1.4,0-2.45-0.33-3.14-1c-0.69-0.67-1.04-1.78-1.04-3.35v-7.4H45v-1.97h2.05V8.99h2.3
				v3.43h3.55v1.97h-3.55v7.45c0,0.88,0.16,1.49,0.49,1.81c0.33,0.32,0.89,0.49,1.69,0.49H52.93z"/>
			<path class="st3" d="M55.73,7.38c0.28-0.26,0.66-0.39,1.12-0.39c0.47,0,0.84,0.13,1.12,0.39c0.28,0.26,0.42,0.6,0.42,1.01
				c0,0.42-0.14,0.75-0.42,1.01c-0.28,0.26-0.66,0.39-1.12,0.39c-0.47,0-0.84-0.13-1.12-0.39c-0.28-0.26-0.43-0.6-0.43-1.01
				C55.3,7.97,55.44,7.63,55.73,7.38z M57.98,12.41v13.72H55.7V12.41H57.98z"/>
			<path class="st3" d="M66.95,23.71l4.25-11.3h2.45l-5.38,13.72h-2.7L60.2,12.41h2.45L66.95,23.71z"/>
			<path class="st3" d="M85.64,13.09c1.04,0.57,1.86,1.38,2.45,2.45s0.89,2.32,0.89,3.75s-0.3,2.68-0.89,3.74s-1.41,1.87-2.45,2.44
				c-1.04,0.57-2.22,0.85-3.54,0.85s-2.5-0.28-3.54-0.85c-1.04-0.57-1.86-1.38-2.46-2.44s-0.9-2.3-0.9-3.74s0.3-2.68,0.9-3.75
				s1.42-1.88,2.46-2.45c1.04-0.57,2.22-0.85,3.54-0.85S84.6,12.52,85.64,13.09z M79.84,14.79c-0.69,0.37-1.25,0.93-1.67,1.69
				s-0.64,1.7-0.64,2.81c0,1.1,0.21,2.03,0.64,2.79c0.42,0.76,0.98,1.32,1.67,1.69c0.69,0.37,1.45,0.55,2.26,0.55
				s1.57-0.18,2.26-0.55c0.69-0.37,1.25-0.93,1.67-1.69c0.42-0.76,0.64-1.69,0.64-2.79c0-1.12-0.21-2.05-0.64-2.81
				s-0.98-1.32-1.67-1.69c-0.69-0.37-1.45-0.55-2.26-0.55S80.53,14.42,79.84,14.79z"/>
		</g>
	</g>
	<circle class="st159" cx="115.84" cy="19.12" r="6.87"/>
</g>
</svg>
