<?xml version="1.0" encoding="utf-8"?>
<!-- Generator: Adobe Illustrator 24.2.3, SVG Export Plug-In . SVG Version: 6.00 Build 0)  -->
<svg version="1.1" id="Capa_1" xmlns="http://www.w3.org/2000/svg" xmlns:xlink="http://www.w3.org/1999/xlink" x="0px" y="0px"
	 viewBox="0 0 41.55 41.55" style="enable-background:new 0 0 41.55 41.55;" xml:space="preserve">
<style type="text/css">
	.st0{fill:#004772;}
	.st1{fill:#727272;}
	.st2{fill:#F2F2F2;}
	.st3{fill:#FF5454;}
	.st4{fill:url(#SVGID_1_);}
	.st5{fill:#011423;}
	.st6{fill:#FFFFFF;}
	.st7{fill:#F7F7F7;}
	.st8{fill:#00ACF5;}
	.st9{fill:#00ADF6;}
	.st10{fill:#FFFFFF;stroke:#00ADF6;stroke-miterlimit:10;}
	.st11{fill:none;stroke:#004772;stroke-width:1.5;stroke-linecap:round;stroke-linejoin:round;stroke-miterlimit:10;}
	.st12{fill:url(#SVGID_2_);}
	.st13{fill:#17BF93;}
	.st14{fill:#FFB93E;}
	.st15{fill:none;stroke:#FFFFFF;stroke-width:2;stroke-miterlimit:10;}
	.st16{fill:none;stroke:#FF5454;stroke-width:8;stroke-miterlimit:10;}
	.st17{fill:none;stroke:#FFFFFF;stroke-miterlimit:10;}
	.st18{clip-path:url(#SVGID_4_);}
	.st19{opacity:0.7;fill:url(#SVGID_7_);}
	.st20{opacity:0.02;}
	
		.st21{fill:none;stroke:url(#SVGID_8_);stroke-width:676.0851;stroke-miterlimit:10;stroke-dasharray:3.7734,15.0934,3.7734,15.0934,3.7734,15.0934;}
	.st22{opacity:0.3;}
	.st23{opacity:0.1;}
	.st24{opacity:0.19;}
	.st25{opacity:0.5;}
	.st26{opacity:0.4;}
	.st27{clip-path:url(#SVGID_10_);}
	.st28{opacity:0.19;fill:url(#SVGID_11_);}
	.st29{clip-path:url(#SVGID_13_);}
	.st30{clip-path:url(#SVGID_19_);}
	.st31{clip-path:url(#SVGID_21_);}
	.st32{fill:url(#SVGID_22_);}
	.st33{fill:url(#SVGID_23_);}
	.st34{fill:url(#SVGID_24_);}
	.st35{fill:url(#SVGID_25_);}
	.st36{fill:url(#SVGID_26_);}
	.st37{fill:url(#SVGID_27_);}
	.st38{fill:url(#SVGID_28_);}
	.st39{fill:url(#SVGID_29_);}
	.st40{fill:url(#SVGID_30_);}
	.st41{fill:url(#SVGID_31_);}
	.st42{fill:url(#SVGID_32_);}
	.st43{fill:url(#SVGID_33_);}
	.st44{fill:url(#SVGID_34_);}
	.st45{fill:url(#SVGID_35_);}
	.st46{fill:url(#SVGID_36_);}
	.st47{fill:url(#SVGID_37_);}
	.st48{fill:url(#SVGID_38_);}
	.st49{fill:url(#SVGID_39_);}
	.st50{fill:url(#SVGID_40_);}
	.st51{fill:url(#SVGID_41_);}
	.st52{fill:url(#SVGID_42_);}
	.st53{fill:url(#SVGID_43_);}
	.st54{fill:url(#SVGID_44_);}
	.st55{fill:url(#SVGID_45_);}
	.st56{fill:url(#SVGID_46_);}
	.st57{fill:url(#SVGID_47_);}
	.st58{opacity:0.15;fill:#FFFFFF;}
	.st59{fill:#FF4F5B;}
	.st60{fill:#DB4A4A;}
	.st61{fill:#60609D;}
	.st62{fill:#FE5454;}
	.st63{fill:#8F8FE0;}
	.st64{fill:url(#SVGID_50_);}
	.st65{fill:#D9D3DC;}
	.st66{enable-background:new    ;}
	.st67{clip-path:url(#SVGID_52_);enable-background:new    ;}
	.st68{fill:#A19EA5;}
	.st69{fill:#A09DA3;}
	.st70{fill:#9E9BA2;}
	.st71{fill:#9D9AA0;}
	.st72{fill:#9B989E;}
	.st73{fill:#9A979D;}
	.st74{fill:#98959B;}
	.st75{fill:#97949A;}
	.st76{fill:#959298;}
	.st77{fill:#949197;}
	.st78{fill:#948F95;}
	.st79{fill:#918E93;}
	.st80{fill:#918C92;}
	.st81{fill:#8E8B8F;}
	.st82{fill:#8C898F;}
	.st83{fill:#8B888E;}
	.st84{fill:#89868B;}
	.st85{fill:#88858A;}
	.st86{fill:#868389;}
	.st87{fill:#858287;}
	.st88{fill:#838085;}
	.st89{fill:#828084;}
	.st90{fill:#807E82;}
	.st91{fill:#807D81;}
	.st92{fill:#7E7B80;}
	.st93{fill:#7D7A7F;}
	.st94{clip-path:url(#SVGID_54_);enable-background:new    ;}
	.st95{clip-path:url(#SVGID_56_);enable-background:new    ;}
	.st96{fill:url(#SVGID_57_);}
	.st97{clip-path:url(#SVGID_59_);enable-background:new    ;}
	.st98{fill:url(#SVGID_60_);}
	.st99{fill:url(#SVGID_61_);}
	.st100{fill:url(#SVGID_62_);}
	.st101{clip-path:url(#SVGID_64_);enable-background:new    ;}
	.st102{fill:#A3A0A6;}
	.st103{fill:#A4A1A8;}
	.st104{fill:#A6A4A9;}
	.st105{fill:#A8A4AB;}
	.st106{fill:#AAA6AC;}
	.st107{fill:#ABA7AE;}
	.st108{opacity:0.15;fill:url(#SVGID_65_);}
	.st109{fill:#FF8989;}
	.st110{fill:#BB3E3E;}
	.st111{fill:#525280;}
	.st112{fill:url(#SVGID_66_);}
	.st113{fill:#D9D1E0;}
	.st114{fill:#F8F4FB;}
	.st115{fill:#BDA4D0;}
	.st116{fill:url(#SVGID_67_);}
	.st117{fill:url(#XMLID_9_);}
	.st118{fill:url(#SVGID_68_);}
	.st119{fill:url(#XMLID_10_);}
	.st120{fill:url(#SVGID_69_);}
	.st121{fill:url(#XMLID_11_);}
	.st122{fill:url(#SVGID_70_);}
	.st123{fill:url(#XMLID_12_);}
	.st124{fill:url(#SVGID_71_);}
	.st125{fill:url(#XMLID_13_);}
	.st126{fill:url(#SVGID_72_);}
	.st127{fill:url(#XMLID_14_);}
	.st128{fill:url(#SVGID_73_);}
	.st129{fill:#374B93;}
	.st130{fill:#6DD6F2;}
	.st131{clip-path:url(#SVGID_75_);}
	.st132{fill:#FFFFFF;stroke:#001C26;stroke-width:0.25;stroke-miterlimit:10;}
	.st133{fill:#F9F9F9;stroke:#B3B3B3;stroke-width:0.5;stroke-miterlimit:10;}
	.st134{fill:#B3B3B3;}
	.st135{clip-path:url(#SVGID_77_);}
	.st136{fill:#491010;}
	.st137{clip-path:url(#SVGID_79_);}
	.st138{fill:url(#XMLID_16_);}
	.st139{fill:url(#SVGID_82_);}
	.st140{clip-path:url(#SVGID_84_);}
	.st141{fill:#E4E8E9;}
	.st142{fill:#F4EFEF;}
	.st143{fill:#F5F7F7;}
	.st144{fill:none;stroke:#4D4D4D;stroke-width:0.5;stroke-miterlimit:10;}
	.st145{fill:#005275;}
	.st146{fill:#004772;stroke:#004772;stroke-width:0.75;stroke-miterlimit:10;}
	.st147{fill:none;stroke:#FFFFFF;stroke-width:2;stroke-linecap:round;stroke-miterlimit:10;}
	.st148{fill:none;stroke:#FFFFFF;stroke-width:1.5;stroke-linecap:round;stroke-linejoin:round;stroke-miterlimit:10;}
	.st149{fill:none;stroke:#B3B3B3;stroke-width:0.75;stroke-miterlimit:10;}
	.st150{fill:#FF1C26;}
	.st151{fill:#666666;}
	.st152{fill:#E6E6E6;}
	.st153{fill:none;stroke:#CCCCCC;stroke-miterlimit:10;}
	.st154{clip-path:url(#SVGID_96_);}
	.st155{fill:url(#SVGID_99_);}
	.st156{fill:none;stroke:#CCCCCC;stroke-width:3;stroke-linecap:round;stroke-linejoin:round;stroke-miterlimit:10;}
	.st157{fill:#EAEAEA;}
	.st158{fill:url(#SVGID_100_);}
	.st159{fill:#0BFF22;}
	.st160{fill:url(#SVGID_101_);}
	.st161{fill:url(#SVGID_102_);}
	.st162{fill:#FFB210;}
	.st163{fill:none;stroke:#FFFFFF;stroke-linecap:round;stroke-miterlimit:10;}
	.st164{fill:url(#SVGID_103_);}
	.st165{fill:url(#SVGID_104_);}
	.st166{fill:url(#SVGID_105_);}
	.st167{fill:url(#SVGID_106_);}
	.st168{fill:url(#SVGID_107_);}
	.st169{fill:none;stroke:#E0E0E0;stroke-width:8;stroke-miterlimit:10;}
	.st170{fill:none;stroke:#FFB210;stroke-width:8;stroke-miterlimit:10;}
	.st171{fill:none;stroke:#CCCCCC;stroke-width:2;stroke-linecap:round;stroke-linejoin:round;stroke-miterlimit:10;}
	.st172{fill:none;stroke:#FFFFFF;stroke-width:2;stroke-linecap:round;stroke-linejoin:round;stroke-miterlimit:10;}
	.st173{clip-path:url(#SVGID_109_);}
	.st174{fill:url(#SVGID_110_);}
	.st175{fill:url(#XMLID_17_);}
	.st176{fill:url(#SVGID_111_);}
	.st177{clip-path:url(#SVGID_113_);}
	.st178{clip-path:url(#SVGID_117_);}
	.st179{fill:#F9F9F9;}
	.st180{fill:#CCCCCC;}
</style>
<g>
	<path class="st2" d="M30.14,41.34H11.41c-6.18,0-11.2-5.01-11.2-11.2V11.41c0-6.18,5.01-11.2,11.2-11.2h18.74
		c6.18,0,11.2,5.01,11.2,11.2v18.74C41.34,36.33,36.33,41.34,30.14,41.34z"/>
	<g>
		<g>
			<path class="st134" d="M31.32,12.01c-1.22-1.38-2.91-2.14-4.76-2.14c-2.6,0-4.25,1.55-5.17,2.86c-0.24,0.34-0.44,0.68-0.61,1
				c-0.17-0.32-0.37-0.66-0.61-1c-0.92-1.3-2.57-2.86-5.17-2.86c-1.85,0-3.54,0.76-4.76,2.14c-1.16,1.32-1.8,3.08-1.8,4.97
				c0,2.05,0.8,3.96,2.52,6.01c1.54,1.83,3.75,3.72,6.32,5.9c0.96,0.81,1.94,1.66,2.99,2.58l0.03,0.03
				c0.14,0.12,0.31,0.18,0.48,0.18c0.17,0,0.34-0.06,0.48-0.18l0.03-0.03c1.05-0.92,2.04-1.76,2.99-2.58
				c2.56-2.18,4.78-4.07,6.32-5.9c1.72-2.05,2.52-3.96,2.52-6.01C33.12,15.1,32.48,13.33,31.32,12.01z M23.34,27.8
				c-0.82,0.7-1.67,1.42-2.56,2.2c-0.89-0.78-1.74-1.5-2.56-2.2c-5.02-4.28-8.33-7.1-8.33-10.81c0-1.53,0.51-2.96,1.44-4.01
				c0.94-1.07,2.24-1.65,3.67-1.65c1.98,0,3.26,1.22,3.99,2.25c0.65,0.92,0.99,1.85,1.11,2.2c0.1,0.3,0.37,0.5,0.69,0.5
				c0.31,0,0.59-0.2,0.69-0.5c0.12-0.36,0.46-1.28,1.11-2.2c0.73-1.02,2.01-2.25,3.99-2.25c1.43,0,2.73,0.59,3.67,1.65
				c0.93,1.05,1.44,2.48,1.44,4.01C31.67,20.7,28.36,23.52,23.34,27.8z"/>
		</g>
	</g>
</g>
</svg>
