<?xml version="1.0" encoding="utf-8"?>
<!-- Generator: Adobe Illustrator 24.2.3, SVG Export Plug-In . SVG Version: 6.00 Build 0)  -->
<svg version="1.1" id="Capa_1" xmlns="http://www.w3.org/2000/svg" xmlns:xlink="http://www.w3.org/1999/xlink" x="0px" y="0px"
	 viewBox="0 0 36.09 31.35" style="enable-background:new 0 0 36.09 31.35;" xml:space="preserve">
<style type="text/css">
	.st0{fill:#004772;}
	.st1{fill:#727272;}
	.st2{fill:#F2F2F2;}
	.st3{fill:#FF5454;}
	.st4{fill:url(#SVGID_1_);}
	.st5{fill:#011423;}
	.st6{fill:#FFFFFF;}
	.st7{fill:#F7F7F7;}
	.st8{fill:#00ACF5;}
	.st9{fill:#00ADF6;}
	.st10{fill:#FFFFFF;stroke:#00ADF6;stroke-miterlimit:10;}
	.st11{fill:none;stroke:#004772;stroke-width:1.5;stroke-linecap:round;stroke-linejoin:round;stroke-miterlimit:10;}
	.st12{fill:url(#SVGID_2_);}
	.st13{fill:#17BF93;}
	.st14{fill:#FFB93E;}
	.st15{fill:none;stroke:#FFFFFF;stroke-width:2;stroke-miterlimit:10;}
	.st16{fill:none;stroke:#FF5454;stroke-width:8;stroke-miterlimit:10;}
	.st17{fill:none;stroke:#FFFFFF;stroke-miterlimit:10;}
	.st18{clip-path:url(#SVGID_4_);}
	.st19{opacity:0.7;fill:url(#SVGID_7_);}
	.st20{opacity:0.02;}
	
		.st21{fill:none;stroke:url(#SVGID_8_);stroke-width:676.0851;stroke-miterlimit:10;stroke-dasharray:3.7734,15.0934,3.7734,15.0934,3.7734,15.0934;}
	.st22{opacity:0.3;}
	.st23{opacity:0.1;}
	.st24{opacity:0.19;}
	.st25{opacity:0.5;}
	.st26{opacity:0.4;}
	.st27{clip-path:url(#SVGID_10_);}
	.st28{opacity:0.19;fill:url(#SVGID_11_);}
	.st29{clip-path:url(#SVGID_13_);}
	.st30{clip-path:url(#SVGID_19_);}
	.st31{clip-path:url(#SVGID_21_);}
	.st32{fill:url(#SVGID_22_);}
	.st33{fill:url(#SVGID_23_);}
	.st34{fill:url(#SVGID_24_);}
	.st35{fill:url(#SVGID_25_);}
	.st36{fill:url(#SVGID_26_);}
	.st37{fill:url(#SVGID_27_);}
	.st38{fill:url(#SVGID_28_);}
	.st39{fill:url(#SVGID_29_);}
	.st40{fill:url(#SVGID_30_);}
	.st41{fill:url(#SVGID_31_);}
	.st42{fill:url(#SVGID_32_);}
	.st43{fill:url(#SVGID_33_);}
	.st44{fill:url(#SVGID_34_);}
	.st45{fill:url(#SVGID_35_);}
	.st46{fill:url(#SVGID_36_);}
	.st47{fill:url(#SVGID_37_);}
	.st48{fill:url(#SVGID_38_);}
	.st49{fill:url(#SVGID_39_);}
	.st50{fill:url(#SVGID_40_);}
	.st51{fill:url(#SVGID_41_);}
	.st52{fill:url(#SVGID_42_);}
	.st53{fill:url(#SVGID_43_);}
	.st54{fill:url(#SVGID_44_);}
	.st55{fill:url(#SVGID_45_);}
	.st56{fill:url(#SVGID_46_);}
	.st57{fill:url(#SVGID_47_);}
	.st58{opacity:0.15;fill:#FFFFFF;}
	.st59{fill:#FF4F5B;}
	.st60{fill:#DB4A4A;}
	.st61{fill:#60609D;}
	.st62{fill:#FE5454;}
	.st63{fill:#8F8FE0;}
	.st64{fill:url(#SVGID_50_);}
	.st65{fill:#D9D3DC;}
	.st66{enable-background:new    ;}
	.st67{clip-path:url(#SVGID_52_);enable-background:new    ;}
	.st68{fill:#A19EA5;}
	.st69{fill:#A09DA3;}
	.st70{fill:#9E9BA2;}
	.st71{fill:#9D9AA0;}
	.st72{fill:#9B989E;}
	.st73{fill:#9A979D;}
	.st74{fill:#98959B;}
	.st75{fill:#97949A;}
	.st76{fill:#959298;}
	.st77{fill:#949197;}
	.st78{fill:#948F95;}
	.st79{fill:#918E93;}
	.st80{fill:#918C92;}
	.st81{fill:#8E8B8F;}
	.st82{fill:#8C898F;}
	.st83{fill:#8B888E;}
	.st84{fill:#89868B;}
	.st85{fill:#88858A;}
	.st86{fill:#868389;}
	.st87{fill:#858287;}
	.st88{fill:#838085;}
	.st89{fill:#828084;}
	.st90{fill:#807E82;}
	.st91{fill:#807D81;}
	.st92{fill:#7E7B80;}
	.st93{fill:#7D7A7F;}
	.st94{clip-path:url(#SVGID_54_);enable-background:new    ;}
	.st95{clip-path:url(#SVGID_56_);enable-background:new    ;}
	.st96{fill:url(#SVGID_57_);}
	.st97{clip-path:url(#SVGID_59_);enable-background:new    ;}
	.st98{fill:url(#SVGID_60_);}
	.st99{fill:url(#SVGID_61_);}
	.st100{fill:url(#SVGID_62_);}
	.st101{clip-path:url(#SVGID_64_);enable-background:new    ;}
	.st102{fill:#A3A0A6;}
	.st103{fill:#A4A1A8;}
	.st104{fill:#A6A4A9;}
	.st105{fill:#A8A4AB;}
	.st106{fill:#AAA6AC;}
	.st107{fill:#ABA7AE;}
	.st108{opacity:0.15;fill:url(#SVGID_65_);}
	.st109{fill:#FF8989;}
	.st110{fill:#BB3E3E;}
	.st111{fill:#525280;}
	.st112{fill:url(#SVGID_66_);}
	.st113{fill:#D9D1E0;}
	.st114{fill:#F8F4FB;}
	.st115{fill:#BDA4D0;}
	.st116{fill:url(#SVGID_67_);}
	.st117{fill:url(#XMLID_8_);}
	.st118{fill:url(#SVGID_68_);}
	.st119{fill:url(#XMLID_9_);}
	.st120{fill:url(#SVGID_69_);}
	.st121{fill:url(#XMLID_10_);}
	.st122{fill:url(#SVGID_70_);}
	.st123{fill:url(#XMLID_11_);}
	.st124{fill:url(#SVGID_71_);}
	.st125{fill:url(#XMLID_12_);}
	.st126{fill:url(#SVGID_72_);}
	.st127{fill:url(#XMLID_13_);}
	.st128{fill:url(#SVGID_73_);}
	.st129{fill:#374B93;}
	.st130{fill:#6DD6F2;}
	.st131{clip-path:url(#SVGID_75_);}
	.st132{fill:#FFFFFF;stroke:#001C26;stroke-width:0.25;stroke-miterlimit:10;}
	.st133{fill:#F9F9F9;stroke:#B3B3B3;stroke-width:0.5;stroke-miterlimit:10;}
	.st134{fill:#B3B3B3;}
	.st135{clip-path:url(#SVGID_77_);}
	.st136{fill:#491010;}
	.st137{clip-path:url(#SVGID_79_);}
	.st138{fill:url(#XMLID_14_);}
	.st139{fill:url(#SVGID_82_);}
	.st140{clip-path:url(#SVGID_84_);}
	.st141{fill:#E4E8E9;}
	.st142{fill:#F4EFEF;}
	.st143{fill:#F5F7F7;}
	.st144{fill:none;stroke:#4D4D4D;stroke-width:0.5;stroke-miterlimit:10;}
	.st145{fill:#005275;}
	.st146{fill:#004772;stroke:#004772;stroke-width:0.75;stroke-miterlimit:10;}
	.st147{fill:none;stroke:#FFFFFF;stroke-width:2;stroke-linecap:round;stroke-miterlimit:10;}
	.st148{fill:none;stroke:#FFFFFF;stroke-width:1.5;stroke-linecap:round;stroke-linejoin:round;stroke-miterlimit:10;}
	.st149{fill:none;stroke:#B3B3B3;stroke-width:0.75;stroke-miterlimit:10;}
	.st150{fill:#FF1C26;}
	.st151{fill:#666666;}
	.st152{fill:#E6E6E6;}
	.st153{fill:none;stroke:#CCCCCC;stroke-miterlimit:10;}
	.st154{clip-path:url(#SVGID_96_);}
	.st155{fill:url(#SVGID_99_);}
	.st156{fill:none;stroke:#CCCCCC;stroke-width:3;stroke-linecap:round;stroke-linejoin:round;stroke-miterlimit:10;}
	.st157{fill:#EAEAEA;}
	.st158{fill:url(#SVGID_100_);}
	.st159{fill:#0BFF22;}
	.st160{fill:url(#SVGID_101_);}
	.st161{fill:url(#SVGID_102_);}
	.st162{fill:#FFB210;}
	.st163{fill:none;stroke:#FFFFFF;stroke-linecap:round;stroke-miterlimit:10;}
	.st164{fill:url(#SVGID_103_);}
	.st165{fill:url(#SVGID_104_);}
	.st166{fill:url(#SVGID_105_);}
	.st167{fill:url(#SVGID_106_);}
	.st168{fill:url(#SVGID_107_);}
	.st169{fill:none;stroke:#E0E0E0;stroke-width:8;stroke-miterlimit:10;}
	.st170{fill:none;stroke:#FFB210;stroke-width:8;stroke-miterlimit:10;}
	.st171{fill:none;stroke:#CCCCCC;stroke-width:2;stroke-linecap:round;stroke-linejoin:round;stroke-miterlimit:10;}
	.st172{fill:none;stroke:#FFFFFF;stroke-width:2;stroke-linecap:round;stroke-linejoin:round;stroke-miterlimit:10;}
</style>
<g>
	<path class="st6" d="M4.3,2.83c-0.29,0-0.52,0.23-0.52,0.52S4.01,3.87,4.3,3.87h0.72c0.29,0,0.52-0.23,0.52-0.52
		S5.31,2.83,5.02,2.83H4.3z"/>
	<path class="st6" d="M7.85,2.83c-0.29,0-0.52,0.23-0.52,0.52s0.23,0.52,0.52,0.52h0.72c0.29,0,0.52-0.23,0.52-0.52
		S8.85,2.83,8.57,2.83H7.85z"/>
	<path class="st6" d="M12.11,3.87c0.29,0,0.52-0.23,0.52-0.52s-0.23-0.52-0.52-0.52H11.4c-0.29,0-0.52,0.23-0.52,0.52
		s0.23,0.52,0.52,0.52H12.11z"/>
	<path class="st6" d="M35.36,25.77c-0.29,0-0.52,0.23-0.52,0.52v1.3c0,1.4-1.14,2.53-2.53,2.53H3.79c-1.4,0-2.53-1.14-2.53-2.53
		V6.52h33.59V24.2c0,0.29,0.23,0.52,0.52,0.52s0.52-0.23,0.52-0.52V3.76c0-1.97-1.61-3.58-3.58-3.58H11.4
		c-0.29,0-0.52,0.23-0.52,0.52s0.23,0.52,0.52,0.52h20.9c1.4,0,2.53,1.14,2.53,2.53v1.72H1.25V3.76c0-1.4,1.14-2.53,2.53-2.53h5.53
		c0.29,0,0.52-0.23,0.52-0.52S9.6,0.18,9.31,0.18H3.79c-1.97,0-3.58,1.61-3.58,3.58v23.83c0,1.97,1.6,3.58,3.58,3.58h28.52
		c1.97,0,3.58-1.61,3.58-3.58v-1.3C35.89,26,35.65,25.77,35.36,25.77z"/>
	<path class="st6" d="M25.28,12.54l0.73-0.42l0,0c0.22-0.13,0.3-0.41,0.17-0.64c-0.13-0.22-0.41-0.3-0.64-0.17l-0.73,0.42
		c-0.22,0.13-0.3,0.41-0.17,0.64c0.09,0.15,0.24,0.23,0.4,0.23C25.13,12.6,25.21,12.58,25.28,12.54z"/>
	<path class="st6" d="M25.41,15.16l0.37,0.1c0.33,0.09,0.35,0.09,0.4,0.09c0,0,0.01,0,0.01,0c0.21,0,0.4-0.14,0.45-0.35
		c0.03-0.12,0.02-0.25-0.05-0.35c-0.06-0.11-0.16-0.19-0.28-0.22l-0.66-0.18c-0.25-0.07-0.5,0.08-0.57,0.33
		c-0.03,0.12-0.02,0.25,0.05,0.35C25.19,15.05,25.29,15.12,25.41,15.16z"/>
	<path class="st6" d="M22.94,10.88c0.04,0.01,0.08,0.02,0.12,0.02c0.21,0,0.4-0.14,0.45-0.35l0.18-0.66
		c0.03-0.12,0.02-0.25-0.05-0.35c-0.06-0.11-0.16-0.18-0.28-0.22c-0.12-0.03-0.25-0.02-0.35,0.05c-0.11,0.06-0.19,0.16-0.22,0.28
		l-0.18,0.66c-0.03,0.12-0.02,0.25,0.05,0.35C22.72,10.77,22.82,10.85,22.94,10.88z"/>
	<path class="st6" d="M16.06,24.99c-0.04,0.02-0.08,0.03-0.13,0.02c-0.04-0.01-0.08-0.04-0.1-0.08l-1.66-2.88l2.08-1.2
		c2.23-1.14,4.63-1.77,7.13-1.87c0.48-0.02,0.91-0.28,1.14-0.7c0.23-0.42,0.23-0.92-0.01-1.34l-1.01-1.75
		c0.48-0.46,0.69-1.13,0.54-1.79c-0.15-0.71-0.68-1.27-1.38-1.46c-0.34-0.09-0.7-0.09-1.03,0.01l-1.01-1.75
		c-0.24-0.42-0.67-0.67-1.15-0.68c-0.01,0-0.02,0-0.03,0c-0.47,0-0.9,0.24-1.15,0.64c-1.33,2.12-3.08,3.88-5.19,5.24
		c-0.2,0.13-0.27,0.4-0.16,0.61c0.01,0.01,0.28,0.48,1.62,2.81l0.21,0.36c0.06,0.11,0.16,0.18,0.28,0.22
		c0.12,0.03,0.24,0.02,0.35-0.05c0.11-0.06,0.19-0.16,0.22-0.28c0.03-0.12,0.02-0.25-0.05-0.35l-1.6-2.78
		c2.06-1.4,3.77-3.18,5.1-5.28c0.08-0.13,0.23-0.2,0.37-0.2c0.15,0,0.29,0.08,0.36,0.21l3.9,6.75c0.08,0.13,0.08,0.29,0,0.42
		c-0.07,0.13-0.21,0.22-0.36,0.22c-2.64,0.1-5.17,0.77-7.52,1.97c-0.02,0.01-2.8,1.62-2.83,1.63c-0.38,0.22-0.87,0.09-1.09-0.29
		l-1.42-2.47c-0.11-0.18-0.13-0.4-0.08-0.61c0.06-0.21,0.19-0.38,0.37-0.48l1.71-0.99c0.11-0.06,0.19-0.16,0.22-0.28
		c0.03-0.12,0.02-0.25-0.05-0.35c-0.13-0.22-0.41-0.3-0.64-0.17l-1.71,0.99c-0.83,0.48-1.11,1.54-0.63,2.36l1.42,2.46
		c0.46,0.79,1.45,1.09,2.27,0.69l1.67,2.89c0.2,0.35,0.57,0.55,0.95,0.55c0.19,0,0.37-0.05,0.55-0.15l0.62-0.36
		c0.52-0.3,0.7-0.98,0.4-1.5l-1.25-2.16c-0.06-0.11-0.16-0.19-0.28-0.22c-0.12-0.03-0.25-0.02-0.35,0.05
		c-0.22,0.13-0.3,0.41-0.17,0.64l1.25,2.16c0.02,0.04,0.03,0.08,0.02,0.13c-0.01,0.04-0.04,0.08-0.08,0.1L16.06,24.99z M22.11,12.8
		c0.36-0.02,0.71,0.17,0.9,0.5c0.19,0.33,0.17,0.72-0.02,1.03L22.11,12.8z"/>
</g>
</svg>
