<?xml version="1.0" encoding="utf-8"?>
<!-- Generator: Adobe Illustrator 24.2.3, SVG Export Plug-In . SVG Version: 6.00 Build 0)  -->
<svg version="1.1" id="Capa_1" xmlns="http://www.w3.org/2000/svg" xmlns:xlink="http://www.w3.org/1999/xlink" x="0px" y="0px"
	 viewBox="0 0 44.99 44.1" style="enable-background:new 0 0 44.99 44.1;" xml:space="preserve">
<style type="text/css">
	.st0{fill:#004772;}
	.st1{fill:#727272;}
	.st2{fill:#F2F2F2;}
	.st3{fill:#FF5454;}
	.st4{fill:url(#SVGID_1_);}
	.st5{fill:#011423;}
	.st6{fill:#FFFFFF;}
	.st7{fill:#F7F7F7;}
	.st8{fill:#00ACF5;}
	.st9{fill:#00ADF6;}
	.st10{fill:#FFFFFF;stroke:#00ADF6;stroke-miterlimit:10;}
	.st11{fill:none;stroke:#004772;stroke-width:1.5;stroke-linecap:round;stroke-linejoin:round;stroke-miterlimit:10;}
	.st12{fill:url(#SVGID_2_);}
	.st13{fill:#17BF93;}
	.st14{fill:#FFB93E;}
	.st15{fill:none;stroke:#FFFFFF;stroke-width:2;stroke-miterlimit:10;}
	.st16{fill:none;stroke:#FF5454;stroke-width:8;stroke-miterlimit:10;}
	.st17{fill:none;stroke:#FFFFFF;stroke-miterlimit:10;}
	.st18{clip-path:url(#SVGID_4_);}
	.st19{opacity:0.7;fill:url(#SVGID_7_);}
	.st20{opacity:0.02;}
	
		.st21{fill:none;stroke:url(#SVGID_8_);stroke-width:676.0851;stroke-miterlimit:10;stroke-dasharray:3.7734,15.0934,3.7734,15.0934,3.7734,15.0934;}
	.st22{opacity:0.3;}
	.st23{opacity:0.1;}
	.st24{opacity:0.19;}
	.st25{opacity:0.5;}
	.st26{opacity:0.4;}
	.st27{clip-path:url(#SVGID_10_);}
	.st28{opacity:0.19;fill:url(#SVGID_11_);}
	.st29{clip-path:url(#SVGID_13_);}
	.st30{clip-path:url(#SVGID_19_);}
	.st31{clip-path:url(#SVGID_21_);}
	.st32{fill:url(#SVGID_22_);}
	.st33{fill:url(#SVGID_23_);}
	.st34{fill:url(#SVGID_24_);}
	.st35{fill:url(#SVGID_25_);}
	.st36{fill:url(#SVGID_26_);}
	.st37{fill:url(#SVGID_27_);}
	.st38{fill:url(#SVGID_28_);}
	.st39{fill:url(#SVGID_29_);}
	.st40{fill:url(#SVGID_30_);}
	.st41{fill:url(#SVGID_31_);}
	.st42{fill:url(#SVGID_32_);}
	.st43{fill:url(#SVGID_33_);}
	.st44{fill:url(#SVGID_34_);}
	.st45{fill:url(#SVGID_35_);}
	.st46{fill:url(#SVGID_36_);}
	.st47{fill:url(#SVGID_37_);}
	.st48{fill:url(#SVGID_38_);}
	.st49{fill:url(#SVGID_39_);}
	.st50{fill:url(#SVGID_40_);}
	.st51{fill:url(#SVGID_41_);}
	.st52{fill:url(#SVGID_42_);}
	.st53{fill:url(#SVGID_43_);}
	.st54{fill:url(#SVGID_44_);}
	.st55{fill:url(#SVGID_45_);}
	.st56{fill:url(#SVGID_46_);}
	.st57{fill:url(#SVGID_47_);}
	.st58{opacity:0.15;fill:#FFFFFF;}
	.st59{fill:#FF4F5B;}
	.st60{fill:#DB4A4A;}
	.st61{fill:#60609D;}
	.st62{fill:#FE5454;}
	.st63{fill:#8F8FE0;}
	.st64{fill:url(#SVGID_50_);}
	.st65{fill:#D9D3DC;}
	.st66{enable-background:new    ;}
	.st67{clip-path:url(#SVGID_52_);enable-background:new    ;}
	.st68{fill:#A19EA5;}
	.st69{fill:#A09DA3;}
	.st70{fill:#9E9BA2;}
	.st71{fill:#9D9AA0;}
	.st72{fill:#9B989E;}
	.st73{fill:#9A979D;}
	.st74{fill:#98959B;}
	.st75{fill:#97949A;}
	.st76{fill:#959298;}
	.st77{fill:#949197;}
	.st78{fill:#948F95;}
	.st79{fill:#918E93;}
	.st80{fill:#918C92;}
	.st81{fill:#8E8B8F;}
	.st82{fill:#8C898F;}
	.st83{fill:#8B888E;}
	.st84{fill:#89868B;}
	.st85{fill:#88858A;}
	.st86{fill:#868389;}
	.st87{fill:#858287;}
	.st88{fill:#838085;}
	.st89{fill:#828084;}
	.st90{fill:#807E82;}
	.st91{fill:#807D81;}
	.st92{fill:#7E7B80;}
	.st93{fill:#7D7A7F;}
	.st94{clip-path:url(#SVGID_54_);enable-background:new    ;}
	.st95{clip-path:url(#SVGID_56_);enable-background:new    ;}
	.st96{fill:url(#SVGID_57_);}
	.st97{clip-path:url(#SVGID_59_);enable-background:new    ;}
	.st98{fill:url(#SVGID_60_);}
	.st99{fill:url(#SVGID_61_);}
	.st100{fill:url(#SVGID_62_);}
	.st101{clip-path:url(#SVGID_64_);enable-background:new    ;}
	.st102{fill:#A3A0A6;}
	.st103{fill:#A4A1A8;}
	.st104{fill:#A6A4A9;}
	.st105{fill:#A8A4AB;}
	.st106{fill:#AAA6AC;}
	.st107{fill:#ABA7AE;}
	.st108{opacity:0.15;fill:url(#SVGID_65_);}
	.st109{fill:#FF8989;}
	.st110{fill:#BB3E3E;}
	.st111{fill:#525280;}
	.st112{fill:url(#SVGID_66_);}
	.st113{fill:#D9D1E0;}
	.st114{fill:#F8F4FB;}
	.st115{fill:#BDA4D0;}
	.st116{fill:url(#SVGID_67_);}
	.st117{fill:url(#XMLID_8_);}
	.st118{fill:url(#SVGID_68_);}
	.st119{fill:url(#XMLID_9_);}
	.st120{fill:url(#SVGID_69_);}
	.st121{fill:url(#XMLID_10_);}
	.st122{fill:url(#SVGID_70_);}
	.st123{fill:url(#XMLID_11_);}
	.st124{fill:url(#SVGID_71_);}
	.st125{fill:url(#XMLID_12_);}
	.st126{fill:url(#SVGID_72_);}
	.st127{fill:url(#XMLID_13_);}
	.st128{fill:url(#SVGID_73_);}
	.st129{fill:#374B93;}
	.st130{fill:#6DD6F2;}
	.st131{clip-path:url(#SVGID_75_);}
	.st132{fill:#FFFFFF;stroke:#001C26;stroke-width:0.25;stroke-miterlimit:10;}
	.st133{fill:#F9F9F9;stroke:#B3B3B3;stroke-width:0.5;stroke-miterlimit:10;}
	.st134{fill:#B3B3B3;}
	.st135{clip-path:url(#SVGID_77_);}
	.st136{fill:#491010;}
	.st137{clip-path:url(#SVGID_79_);}
	.st138{fill:url(#XMLID_14_);}
	.st139{fill:url(#SVGID_82_);}
	.st140{clip-path:url(#SVGID_84_);}
	.st141{fill:#E4E8E9;}
	.st142{fill:#F4EFEF;}
	.st143{fill:#F5F7F7;}
	.st144{fill:none;stroke:#4D4D4D;stroke-width:0.5;stroke-miterlimit:10;}
	.st145{fill:#005275;}
	.st146{fill:#004772;stroke:#004772;stroke-width:0.75;stroke-miterlimit:10;}
	.st147{fill:none;stroke:#FFFFFF;stroke-width:2;stroke-linecap:round;stroke-miterlimit:10;}
	.st148{fill:none;stroke:#FFFFFF;stroke-width:1.5;stroke-linecap:round;stroke-linejoin:round;stroke-miterlimit:10;}
	.st149{fill:none;stroke:#B3B3B3;stroke-width:0.75;stroke-miterlimit:10;}
	.st150{fill:#FF1C26;}
	.st151{fill:#666666;}
	.st152{fill:#E6E6E6;}
	.st153{fill:none;stroke:#CCCCCC;stroke-miterlimit:10;}
	.st154{clip-path:url(#SVGID_96_);}
	.st155{fill:url(#SVGID_99_);}
	.st156{fill:none;stroke:#CCCCCC;stroke-width:3;stroke-linecap:round;stroke-linejoin:round;stroke-miterlimit:10;}
	.st157{fill:#EAEAEA;}
	.st158{fill:url(#SVGID_100_);}
	.st159{fill:#0BFF22;}
	.st160{fill:url(#SVGID_101_);}
	.st161{fill:url(#SVGID_102_);}
	.st162{fill:#FFB210;}
	.st163{fill:none;stroke:#FFFFFF;stroke-linecap:round;stroke-miterlimit:10;}
	.st164{fill:url(#SVGID_103_);}
	.st165{fill:url(#SVGID_104_);}
	.st166{fill:url(#SVGID_105_);}
	.st167{fill:url(#SVGID_106_);}
	.st168{fill:url(#SVGID_107_);}
	.st169{fill:none;stroke:#E0E0E0;stroke-width:8;stroke-miterlimit:10;}
	.st170{fill:none;stroke:#FFB210;stroke-width:8;stroke-miterlimit:10;}
	.st171{fill:none;stroke:#CCCCCC;stroke-width:2;stroke-linecap:round;stroke-linejoin:round;stroke-miterlimit:10;}
	.st172{fill:none;stroke:#FFFFFF;stroke-width:2;stroke-linecap:round;stroke-linejoin:round;stroke-miterlimit:10;}
</style>
<g id="Shopping_Bag-Hands-Bag-Purchase-Buy_1_">
	<path class="st6" d="M30.45,7.46h-2.92V5.27c0-2.82-2.29-5.11-5.11-5.11s-5.11,2.29-5.11,5.11v2.19h-2.92
		c-0.4,0-0.73,0.33-0.73,0.73v16.06c0,1.21,0.98,2.19,2.19,2.19h9.49v-1.46h-9.49c-0.4,0-0.73-0.33-0.73-0.73v-0.73h10.22v-1.46
		H15.12V8.93h2.19v2.19h1.46V8.93h7.3v2.19h1.46V8.93h2.19v2.19h1.46V8.2C31.18,7.79,30.86,7.46,30.45,7.46z M26.07,7.46h-7.3V5.27
		c0-2.02,1.63-3.65,3.65-3.65s3.65,1.63,3.65,3.65V7.46z"/>
	<path class="st6" d="M40.68,12.58H27.53c-0.4,0-0.73,0.33-0.73,0.73v10.95c0,1.21,0.98,2.19,2.19,2.19h10.22
		c1.21,0,2.19-0.98,2.19-2.19V13.31C41.41,12.9,41.08,12.58,40.68,12.58z M39.95,24.26c0,0.4-0.33,0.73-0.73,0.73H28.99
		c-0.4,0-0.73-0.33-0.73-0.73v-0.73h11.68V24.26z M39.95,22.07H28.26v-8.03h11.68V22.07z"/>
	<path class="st6" d="M34.11,20.61c2.02,0,3.65-1.64,3.65-3.65V15.5H36.3v1.46c0,1.21-0.98,2.19-2.19,2.19s-2.19-0.98-2.19-2.19
		V15.5h-1.46v1.46C30.46,18.97,32.09,20.61,34.11,20.61z"/>
	<path class="st6" d="M44.57,31.23c-0.68-1.41-2.32-2.06-3.78-1.51l-6.52,2.37c-0.28-1.11-1.19-1.96-2.32-2.16l-8.81-1.55
		c-1.89-0.33-3.84-0.16-5.65,0.49l-1.13,0.42c-1.07,0.39-2.07,0.93-2.99,1.59l-0.16-0.44c-0.14-0.38-0.56-0.58-0.94-0.44
		c0,0,0,0,0,0L4.04,33c-0.38,0.14-0.58,0.56-0.44,0.94c0,0,0,0,0,0l-3.43,1.25l0.5,1.37l3.43-1.25l2.98,8.18l1.37-0.5l-3.22-8.87
		l6.86-2.5l3.75,10.3l-1.75,0.64l0.5,1.37l2.44-0.89c0.38-0.14,0.58-0.56,0.44-0.93c0,0,0,0,0,0l-0.25-0.69l1.68-0.61
		c1.06-0.39,2.18-0.54,3.3-0.47l3.46,0.24c1.33,0.1,2.66-0.09,3.9-0.55l13.35-4.86c1.52-0.55,2.3-2.23,1.75-3.74
		C44.63,31.36,44.6,31.3,44.57,31.23L44.57,31.23z M43.23,33.05c-0.16,0.35-0.46,0.62-0.82,0.76l-13.35,4.86
		c-1.06,0.39-2.18,0.55-3.3,0.47l-3.46-0.24c-1.32-0.09-2.65,0.09-3.9,0.55l-1.68,0.61l-2.81-7.73c0.9-0.7,1.9-1.26,2.97-1.65
		l1.13-0.41c1.57-0.57,3.25-0.72,4.9-0.43l8.8,1.55c0.8,0.13,1.34,0.88,1.21,1.68s-0.88,1.34-1.68,1.21c-0.01,0-0.02,0-0.04-0.01
		l-7.91-1.39l-0.25,1.44l7.91,1.39c1.45,0.26,2.86-0.61,3.29-2.02l7.06-2.57c0.74-0.29,1.58,0.02,1.95,0.73
		C43.41,32.22,43.41,32.66,43.23,33.05z"/>
</g>
</svg>
